<svg xmlns="http://www.w3.org/2000/svg" width="54" height="41" fill="none"><path fill="#06255B" fill-rule="evenodd" d="M41.65 24.84 29.3 12.42 41.65 0 54 12.42 41.65 24.84ZM30.27 41h-5.25V28.9a5.7 5.7 0 0 0-.59-2.9c-.39-.64-1-.97-1.84-.97-.8 0-1.55.2-2.22.57-.67.38-1.54.95-2.59 1.7V41h-5.24V28.9a5.7 5.7 0 0 0-.6-2.9c-.39-.64-1-.97-1.84-.97-.8 0-1.55.2-2.22.57-.67.38-1.55.96-2.63 1.75V41H0V21.3h3.44l.88 2.1a16.49 16.49 0 0 1 3.76-2.02 9.83 9.83 0 0 1 3.4-.74c2.67 0 4.47.9 5.41 2.69 1.22-.84 2.46-1.5 3.72-1.97a9.76 9.76 0 0 1 3.36-.72c2.23 0 3.84.6 4.83 1.81.98 1.2 1.47 3 1.47 5.39V41Z" clip-rule="evenodd"/></svg>