<svg width="20" height="22" viewBox="0 0 20 22" fill="none" xmlns="http://www.w3.org/2000/svg">
<path d="M18.5716 0.299805H1.42429C0.638576 0.299805 0.000183105 0.979492 0.000183105 1.81387V19.7857C0.000183105 20.6201 0.638576 21.2998 1.42429 21.2998H18.5716C19.3573 21.2998 20.0002 20.6201 20.0002 19.7857V1.81387C20.0002 0.979492 19.3573 0.299805 18.5716 0.299805ZM6.04483 18.2998H3.08054V8.27793H6.04929V18.2998H6.04483ZM4.56268 6.90918C3.61179 6.90918 2.84393 6.09824 2.84393 5.10449C2.84393 4.11074 3.61179 3.2998 4.56268 3.2998C5.50911 3.2998 6.28143 4.11074 6.28143 5.10449C6.28143 6.10293 5.51358 6.90918 4.56268 6.90918V6.90918ZM17.1564 18.2998H14.1921V13.4248C14.1921 12.2623 14.1698 10.767 12.652 10.767C11.1073 10.767 10.8707 12.0326 10.8707 13.3404V18.2998H7.90643V8.27793H10.7502V9.64668H10.7904C11.1877 8.85918 12.1564 8.02949 13.5984 8.02949C16.5984 8.02949 17.1564 10.1061 17.1564 12.8061V18.2998V18.2998Z" fill="#1074AF"/>
</svg>
