<svg width="85" height="14" viewBox="0 0 85 14" fill="none"
     xmlns="http://www.w3.org/2000/svg">
    <g clip-path="url(#clip0_14444_1274)">
        <path d="M0.830566 7.00519V13.0211H8.44457H16.0586V7.00519V0.989234H14.0512H12.0439V6.38285V11.7903L11.241 11.7488L10.4519 11.7073L10.4104 6.34136L10.3827 0.989234H8.44457H6.50646V6.38285V11.7765H5.67584H4.84522V6.38285V0.989234H2.8379H0.830566V7.00519Z"
              fill="#0073AB"/>
        <path d="M17.9967 2.64881V4.30838H19.9348H21.8729V2.64881V0.989231H19.9348H17.9967V2.64881Z"
              fill="#0073AB"/>
        <path d="M23.811 3.13285V5.27647H23.1188H22.4266V5.96796V6.65945H23.1188H23.811V9.8403V13.0211H25.8183H27.8257V9.8403V6.65945H28.5178H29.21V9.8403V13.0211H31.2174H33.2247V9.8403V6.65945H33.9861H34.7475V5.96796V5.27647H34.0691C33.5846 5.27647 33.3631 5.22115 33.3077 5.05519C33.2662 4.93072 33.2247 3.97647 33.2247 2.91157V0.989234H31.2589H29.2792V3.09136V5.20732L28.5594 5.24881L27.8257 5.2903V3.14668V0.989234H25.8183H23.811V3.13285Z"
              fill="#0073AB"/>
        <path d="M46.9299 7.00519V13.0211H48.868H50.7923L50.8338 11.5967L50.8754 10.186L51.5399 10.1446L52.1905 10.1031V11.5552V13.0211H54.1286H56.0667V10.7392V8.45732H54.8208C54.1425 8.45732 53.5749 8.402 53.5749 8.33285C53.5749 8.2637 54.2394 7.54455 55.07 6.74243L56.5513 5.27647H55.3053H54.0594L52.5089 6.7286C51.6645 7.53072 50.9307 8.18072 50.8892 8.18072C50.8477 8.18072 50.8062 6.56264 50.8062 4.58498V0.989234H48.868H46.9299V7.00519Z"
              fill="#0073AB"/>
        <path d="M57.7279 2.64881V4.30838H59.666H61.6041V2.64881V0.989231H59.666H57.7279V2.64881Z"
              fill="#0073AB"/>
        <path d="M80.2931 3.13285V5.27647H77.5243H74.7556V9.14881V13.0211H79.4625H84.1693V7.00519V0.989234H82.2312H80.2931V3.13285ZM80.2931 9.21796V11.7765H79.5317H78.7703V9.21796V6.65945H79.5317H80.2931V9.21796Z"
              fill="#0073AB"/>
        <path d="M17.9967 9.14881V13.0211H19.9348H21.8729V9.14881V5.27647H19.9348H17.9967V9.14881Z"
              fill="#0073AB"/>
        <path d="M35.5782 8.08391C35.5782 9.63285 35.5366 11.3754 35.4951 11.9563L35.3982 13.0211H40.2019H44.9918V12.3988V11.7765H42.2923H39.5928V11.2233V10.6701H42.2923H44.9918V7.97328V5.27647H40.285H35.5782V8.08391ZM41.0879 7.93179L41.0464 9.21796L40.3265 9.25945L39.5928 9.30094V7.98711V6.65945H40.3542H41.1295L41.0879 7.93179Z"
              fill="#0073AB"/>
        <path d="M57.7279 9.14881V13.0211H59.666H61.6041V9.14881V5.27647H59.666H57.7279V9.14881Z"
              fill="#0073AB"/>
        <path d="M63.2654 9.14881V13.0211H65.2035H67.1416V9.8403V6.65945H68.1107H69.0797V9.8403V13.0211H71.087H73.0944V9.14881V5.27647H68.1799H63.2654V9.14881Z"
              fill="#0073AB"/>
    </g>
    <defs>
        <clipPath id="clip0_14444_1274">
            <rect width="85" height="13" fill="white"
                  transform="translate(0 0.436035)"/>
        </clipPath>
    </defs>
</svg>
