<svg width="84" height="47" viewBox="0 0 84 47" fill="none"
     xmlns="http://www.w3.org/2000/svg">
    <path fill-rule="evenodd" clip-rule="evenodd"
          d="M7.74158 30.0233H11.2836V5.78616H7.74158V30.0233Z" fill="#0A0A0A"/>
    <path fill-rule="evenodd" clip-rule="evenodd"
          d="M71.2733 36.9323H73.6533V29.5059C73.6533 27.0724 74.3533 26.1214 75.0393 26.1214C75.7113 26.1214 76.2853 26.8906 76.2853 28.9884V36.9323H78.6373V29.5059C78.6373 27.0864 79.3233 26.1633 80.0233 26.1633C80.7233 26.1633 81.2693 26.9465 81.2693 28.9884V36.9463H83.6213V27.9115C83.6213 25.3661 83.1313 24.0095 82.4033 23.1704C81.9973 22.6949 81.4373 22.3872 80.8773 22.3872C79.8833 22.3872 78.9453 23.1983 78.3293 24.5829C77.7693 23.1844 76.8733 22.4012 76.0053 22.4012C75.2773 22.4012 74.2833 23.1004 73.6533 24.4571V22.583H71.2733V36.9323Z"
          fill="#0A0A0A"/>
    <path fill-rule="evenodd" clip-rule="evenodd"
          d="M69.6059 29.7574C69.6059 25.5337 67.8559 22.4009 65.4059 22.4009C62.9139 22.4009 61.1919 25.4918 61.1919 29.7854C61.1919 34.023 62.9839 37.1558 65.3779 37.1558C66.9319 37.1558 68.4299 35.7153 69.2839 33.4217L67.7159 31.6595C67.1419 33.1979 66.3439 33.9251 65.5459 33.9251C64.5239 33.9251 63.6419 32.5825 63.5299 30.6385H69.5779C69.6059 30.3308 69.6059 30.0371 69.6059 29.7574ZM63.6699 27.7994C63.9779 26.261 64.6919 25.4358 65.3919 25.4358C66.0919 25.4358 66.7919 26.261 67.0719 27.7994H63.6699Z"
          fill="#0A0A0A"/>
    <path fill-rule="evenodd" clip-rule="evenodd"
          d="M59.2773 35.8415V29.9535C58.1993 31.6598 56.7433 32.5828 55.5253 32.5828C53.1453 32.5828 51.2693 29.6458 51.2693 24.8487C51.2693 20.1356 53.1593 17.1706 55.5113 17.1706C56.7853 17.1706 58.2133 18.1076 59.2633 19.7719V13.898C58.1433 12.9469 56.9113 12.4435 55.6233 12.4435C51.5353 12.4435 48.4833 17.4363 48.4833 24.9327C48.4833 29.506 49.6593 33.1143 51.4793 35.2401C52.5853 36.5408 54.0273 37.324 55.5533 37.324C56.8693 37.338 58.1153 36.8485 59.2773 35.8415Z"
          fill="#0A0A0A"/>
    <path fill-rule="evenodd" clip-rule="evenodd"
          d="M41.0749 30.051H43.9029V24.205C43.9029 22.0232 44.1689 21.338 44.4629 20.8345C44.8409 20.1911 45.4009 19.7716 46.0729 19.7716C46.4789 19.7716 46.8569 19.9254 47.2069 20.2051V15.5759C46.0449 15.7157 44.8269 16.5688 43.8889 18.0933V15.6877H41.0609V30.051H41.0749Z"
          fill="#0A0A0A"/>
    <path fill-rule="evenodd" clip-rule="evenodd"
          d="M40.0962 22.8624C40.0962 18.6247 37.9822 15.4919 35.0282 15.4919C32.0182 15.4919 29.9182 18.5827 29.9182 22.8903C29.9182 27.128 32.0742 30.2748 34.9722 30.2748C36.8482 30.2748 38.6682 28.8342 39.7042 26.5266L37.8002 24.7504C37.1142 26.3028 36.1482 27.0161 35.1822 27.0161C33.9502 27.0161 32.8862 25.6735 32.7462 23.7295H40.0542C40.0822 23.4358 40.0962 23.1421 40.0962 22.8624ZM32.9002 20.8904C33.2642 19.338 34.1322 18.5128 34.9862 18.5128C35.8402 18.5128 36.6802 19.338 37.0162 20.8904H32.9002Z"
          fill="#0A0A0A"/>
    <path fill-rule="evenodd" clip-rule="evenodd"
          d="M25.0027 30.0508H27.8727V18.8622H29.6227V15.212H27.8867V11.3939H25.0027V15.212H23.9667V18.8622H25.0027V30.0508Z"
          fill="#0A0A0A"/>
    <path fill-rule="evenodd" clip-rule="evenodd"
          d="M13.3716 30.0511H16.2556V23.31C16.2556 20.2751 17.2776 19.2122 18.2716 19.2122C19.1956 19.2122 20.0216 20.0933 20.0216 22.6527V30.0511H22.8916V22.6527C22.8916 19.3241 22.5276 18.2052 22.1496 17.45C21.5756 16.2473 20.6376 15.506 19.5176 15.506C18.7616 15.506 18.2436 15.7018 17.4316 16.3452C16.9976 16.6808 16.6056 17.1144 16.2416 17.6039V15.6878H13.3716V30.0511Z"
          fill="#0A0A0A"/>
    <path fill-rule="evenodd" clip-rule="evenodd"
          d="M80.248 19.506H83.664V5.80001H71.218C71.988 6.4014 72.73 7.0867 73.332 7.71605C73.374 7.75801 73.416 7.79997 73.458 7.84192L75.236 6.3035C76.44 7.56221 77.434 8.94679 78.218 10.4852L76.174 11.9397C76.79 13.3103 77.224 14.7928 77.406 16.3452L79.94 15.4641C80.15 16.583 80.262 17.7298 80.262 18.8906C80.262 19.1144 80.262 19.3102 80.248 19.506ZM65.492 0.247699C66.878 0.485455 68.222 0.877054 69.538 1.43648C69.944 1.60431 70.336 1.78612 70.728 1.99591L69.258 4.5413C67.97 3.89796 66.57 3.43643 65.1 3.17071L65.492 0.247699ZM56.882 0.849083C58.66 0.27567 60.508 -0.00404358 62.426 -0.00404358V2.93295C60.83 2.93295 59.29 3.17071 57.834 3.63223L56.882 0.849083ZM49.308 5.53429C49.378 5.46436 49.434 5.40841 49.504 5.33849C50.764 4.07978 52.164 3.03085 53.69 2.20569L55.048 4.80703C53.662 5.56226 52.416 6.52727 51.338 7.66011L49.308 5.53429ZM50.204 10.1356L46.27 8.02374L46.466 13.0166L50.204 10.1356ZM17.36 46.8899C18.76 46.9459 20.16 46.848 21.56 46.5683C21.994 46.4844 22.414 46.3865 22.848 46.2746L21.938 43.4774C20.538 43.8411 19.082 44.0089 17.584 43.9529L17.36 46.8899ZM7.406 44.1208C8.918 45.2256 10.584 46.0648 12.404 46.6662L13.314 43.883C11.802 43.3795 10.402 42.6663 9.17 41.7852L7.406 44.1208ZM1.624 37.086C1.666 37.1699 1.708 37.2538 1.75 37.3377C2.548 38.9321 3.528 40.3586 4.718 41.6453L6.832 39.6174C5.768 38.4566 4.886 37.1559 4.228 35.7434L1.624 37.086ZM4.41 32.0791L0 32.8343L1.778 28.1771L4.41 32.0791ZM27.062 43.897C28.196 43.0579 29.218 42.0929 30.128 41.002C30.408 40.6663 30.688 40.3167 30.94 39.967L28.476 38.3727C27.622 39.5335 26.586 40.5824 25.396 41.4775L27.062 43.897ZM83.986 19.7298L84 5.47834H62.104V19.8277C69.356 19.7997 76.748 19.7717 83.986 19.7298Z"
          fill="#009FE3"/>
</svg>
