<svg width="91" height="20" viewBox="0 0 91 20" fill="none"
     xmlns="http://www.w3.org/2000/svg">
    <path d="M0 9.21159V17.6747H4.81372H9.62744V15.5321V13.3896H7.23398H4.84051V7.06904V0.74851H2.42026H0V9.21159Z"
          fill="#5F5046"/>
    <path d="M12.0735 3.70345V6.65838H9.07278H6.07202V8.80093V10.9435H9.07278H12.0735V14.3091V17.6747H14.5027H16.9319V9.21159V0.74851H14.5027H12.0735V3.70345Z"
          fill="#877873"/>
    <path d="M81.5558 10.498C81.3111 10.5391 81.0843 10.7142 80.9717 10.9535C80.9146 11.0732 80.9056 11.1089 80.8985 11.2607C80.8931 11.4054 80.8967 11.4519 80.9307 11.5483C81.0039 11.7662 81.1379 11.9234 81.3325 12.0199C81.4719 12.0913 81.5755 12.1092 81.763 12.1003C81.9113 12.0913 81.947 12.0824 82.0631 12.027C82.5293 11.7948 82.6615 11.2125 82.3417 10.7892C82.1756 10.5695 81.8505 10.448 81.5558 10.498Z"
          fill="#5F5046"/>
    <path d="M36.679 10.64C36.5611 10.6472 36.4003 10.6668 36.3217 10.6829C35.8752 10.7775 35.4858 11.0651 35.2947 11.4419C35.175 11.6794 35.1232 11.958 35.1054 12.4634L35.0929 12.7991H34.7463H34.4016V13.3974V13.9957H34.7499H35.0982V15.8351V17.6745H35.7948H36.4914L36.495 15.8387L36.5004 14.0046L37.0058 13.9992L37.5095 13.9957V13.3974V12.7991L37.0058 12.7956L36.5004 12.7902V12.5045C36.5021 12.283 36.5093 12.1991 36.5325 12.1294C36.62 11.8705 36.8701 11.7633 37.322 11.7866C37.431 11.7937 37.5453 11.8026 37.5774 11.8098L37.6346 11.8205V11.249V10.6775L37.5774 10.6668C37.5113 10.6525 37.0309 10.6204 36.9469 10.624C36.9183 10.624 36.7969 10.6311 36.679 10.64Z"
          fill="#5F5046"/>
    <path d="M73.0901 14.21V17.6745H73.8135H74.5369V14.21V10.7454H73.8135H73.0901V14.21Z"
          fill="#5F5046"/>
    <path d="M23.6851 14.3082V17.6745H25.7392H27.7932V16.9959V16.3173H26.4715H25.1497V13.6296V10.9418H24.4174H23.6851V14.3082Z"
          fill="#5F5046"/>
    <path d="M60.2839 14.3082V17.6745H61.0163H61.7486V16.2726V14.8707H63.0971H64.4457V16.2726V17.6745H65.187H65.9282V14.3082V10.9418H65.187H64.4457V12.2366V13.5313H63.0971H61.7486V12.2366V10.9418H61.0163H60.2839V14.3082Z"
          fill="#5F5046"/>
    <path d="M69.0891 12.6832C68.0871 12.8207 67.2851 13.4529 66.9582 14.3637C66.8564 14.6458 66.8296 14.8298 66.8296 15.237C66.8296 15.6548 66.8475 15.7727 66.9564 16.1031C67.2458 16.971 67.9942 17.5925 68.9569 17.7657C69.2534 17.8193 69.7428 17.8193 70.0358 17.7675C71.0967 17.5764 71.9148 16.8299 72.1417 15.8441C72.4649 14.4333 71.6505 13.1029 70.2465 12.7439C69.9107 12.66 69.4445 12.635 69.0891 12.6832ZM69.8214 13.9958C70.2769 14.1065 70.6055 14.4226 70.7359 14.8834C70.7663 14.9905 70.7752 15.0691 70.7752 15.228C70.7752 15.4763 70.7413 15.6245 70.6395 15.8352C70.5359 16.0495 70.3215 16.2638 70.1072 16.3674C69.7625 16.5335 69.4142 16.5549 69.0659 16.4335C68.8855 16.371 68.7587 16.2888 68.605 16.1388C68.4461 15.9799 68.3443 15.7941 68.2835 15.5495C68.2282 15.3334 68.2407 15.0155 68.3121 14.8012C68.4246 14.4672 68.689 14.1833 69.0087 14.0529C69.2516 13.9547 69.5553 13.9333 69.8214 13.9958Z"
          fill="#5F5046"/>
    <path d="M77.696 12.6831C76.5368 12.8474 75.674 13.6493 75.4722 14.7458C75.4293 14.9762 75.4293 15.4744 75.4704 15.7102C75.5365 16.0691 75.6705 16.412 75.8598 16.7013C75.9777 16.8799 76.3046 17.2085 76.4832 17.3264C76.8886 17.596 77.3227 17.7389 77.871 17.7836C78.1479 17.805 78.4551 17.7889 78.7123 17.7353C79.1642 17.6425 79.6054 17.405 79.993 17.0424L80.1537 16.8924L80.118 16.8531C80.0984 16.8317 79.8912 16.6281 79.659 16.4031L79.2339 15.9923L79.1196 16.0995C78.9749 16.2334 78.8695 16.3067 78.7284 16.3709C78.3283 16.5495 77.8335 16.5281 77.4691 16.3138C77.3405 16.2388 77.1173 16.0156 77.0405 15.8852C76.8136 15.503 76.8047 15.0012 77.0154 14.594C77.094 14.4422 77.337 14.1904 77.4834 14.1065C77.6531 14.0118 77.846 13.9565 78.0496 13.9457C78.4712 13.9243 78.8088 14.0493 79.1213 14.3404L79.2357 14.4476L79.6322 14.0583C79.8501 13.8422 80.0573 13.6404 80.0912 13.6082L80.152 13.5493L80.0823 13.4761C79.893 13.2814 79.5697 13.0475 79.3089 12.9171C79.1356 12.8296 78.8534 12.7367 78.6534 12.6992C78.4337 12.6599 77.9175 12.651 77.696 12.6831Z"
          fill="#5F5046"/>
    <path d="M56.2647 12.6992C55.1269 12.8635 54.3356 13.5939 54.1177 14.6779C54.0641 14.9458 54.0606 15.4976 54.1106 15.7726C54.1785 16.1459 54.3446 16.5388 54.55 16.8156C55.1108 17.5674 56.1647 17.9139 57.3185 17.7264C57.8472 17.6389 58.3277 17.4067 58.6867 17.0602L58.8386 16.9156L58.4367 16.5156L58.0348 16.1137L57.949 16.1852C57.674 16.4155 57.3828 16.5406 57.0256 16.5852C56.2718 16.6799 55.6181 16.3173 55.5234 15.7494L55.5109 15.6744H57.2882H59.0636L59.0761 15.5655C59.0815 15.5048 59.0868 15.3637 59.0868 15.2512C59.0868 13.9314 58.392 12.9831 57.2382 12.726C57.0256 12.6777 56.5076 12.6652 56.2647 12.6992ZM56.9238 13.8439C57.3203 13.9386 57.6186 14.2582 57.6668 14.644L57.6793 14.7458H56.6041H55.527L55.5395 14.6547C55.5842 14.3207 55.8235 14.0314 56.1575 13.9046C56.3897 13.8171 56.7023 13.7921 56.9238 13.8439Z"
          fill="#5F5046"/>
    <path d="M46.9049 12.7027C46.6799 12.7438 46.5673 12.7777 46.4227 12.8474C46.2816 12.9152 46.2298 12.9527 46.1101 13.0742C46.0208 13.1634 45.9422 13.2635 45.9047 13.3349L45.8422 13.451L45.8368 13.1242L45.8332 12.7991H45.1188H44.4043V15.2368V17.6745H45.1188H45.8314L45.8386 16.3405C45.8457 14.8422 45.8404 14.8957 45.9797 14.6064C46.1047 14.3421 46.3155 14.1725 46.6281 14.0814C46.7531 14.0457 46.8103 14.0403 47.0746 14.0403C47.2425 14.0403 47.4158 14.0457 47.464 14.0528L47.548 14.0671V13.3992C47.548 12.7795 47.5462 12.7313 47.5176 12.7188C47.4801 12.7045 46.971 12.6902 46.9049 12.7027Z"
          fill="#5F5046"/>
    <path d="M85.9777 12.7188C85.5865 12.792 85.2221 13.0295 85.0721 13.3117C85.0489 13.3545 85.0256 13.3885 85.0185 13.3885C85.0096 13.3885 85.0042 13.2563 85.0042 13.0938V12.7991H84.2987H83.5931V15.2368V17.6745H84.2969H85.0024L85.0096 16.2066C85.0149 14.8654 85.0185 14.7279 85.0471 14.6296C85.131 14.3421 85.2971 14.1314 85.5168 14.026C85.6294 13.9724 85.6508 13.9689 85.8258 13.9689C86.0027 13.9689 86.0223 13.9724 86.1331 14.0278C86.3242 14.1207 86.4385 14.2796 86.5064 14.5457C86.5385 14.6725 86.5403 14.7546 86.5403 16.178V17.6745H87.2548H87.9675L87.9746 16.1958C87.98 14.5493 87.9746 14.6368 88.1068 14.3832C88.189 14.2278 88.3568 14.0689 88.4997 14.0117C88.5837 13.9778 88.6373 13.9707 88.7909 13.9689C88.957 13.9689 88.9892 13.9742 89.0802 14.0171C89.2124 14.0778 89.325 14.1939 89.3964 14.3368C89.5054 14.56 89.5054 14.5528 89.5054 16.1869V17.6745H90.2198H90.9361L90.9289 15.9833C90.9236 14.1189 90.9254 14.1653 90.8093 13.8135C90.7057 13.5045 90.5735 13.2938 90.3556 13.0902C90.0876 12.8402 89.7518 12.7152 89.2999 12.6973C88.5605 12.667 88.021 12.8724 87.7245 13.2974C87.6781 13.3617 87.6352 13.4224 87.6299 13.4295C87.6227 13.4367 87.5817 13.3849 87.5406 13.3135C87.3977 13.0742 87.1673 12.8831 86.9047 12.7884C86.6528 12.6973 86.2563 12.667 85.9777 12.7188Z"
          fill="#5F5046"/>
    <path d="M30.4003 12.7224C30.3664 12.726 30.2574 12.7457 30.161 12.7653C28.9625 13.0135 28.1748 14.1368 28.2748 15.4548C28.3141 15.9674 28.4427 16.3531 28.7052 16.7478C29.2143 17.5068 30.2021 17.8836 31.1755 17.6907C31.6042 17.605 31.9579 17.3853 32.1025 17.1139L32.1418 17.0407L32.1472 17.3585L32.1508 17.6746H32.8652H33.5797V15.2369V12.7992H32.8652H32.1508V13.1028C32.1508 13.2689 32.1454 13.4064 32.1383 13.4064C32.1293 13.4064 32.1007 13.3618 32.0722 13.3082C31.9686 13.11 31.6953 12.9135 31.3773 12.81C31.1273 12.7278 30.7057 12.6903 30.4003 12.7224ZM31.2291 14.0404C31.4952 14.0958 31.7114 14.2119 31.8918 14.3958C32.2615 14.7762 32.3365 15.3691 32.074 15.8352C32.0025 15.962 31.7596 16.2067 31.6292 16.2799C31.4077 16.4049 31.1041 16.4728 30.8611 16.4531C30.5432 16.4263 30.2753 16.3049 30.0609 16.087C29.8591 15.8834 29.7591 15.6709 29.7198 15.3655C29.6876 15.1084 29.7644 14.7762 29.9073 14.5619C29.9824 14.4494 30.1628 14.2726 30.2753 14.2011C30.5378 14.0351 30.904 13.9743 31.2291 14.0404Z"
          fill="#5F5046"/>
    <path d="M40.0221 12.7296C39.4059 12.81 38.829 13.1493 38.4467 13.6565C38.3163 13.8279 38.1431 14.1672 38.0752 14.3798C37.8591 15.053 37.9162 15.8602 38.2199 16.4674C38.5235 17.0764 39.063 17.505 39.7274 17.6657C40.5723 17.8693 41.4922 17.6336 41.7583 17.1443L41.8137 17.0407L41.8154 17.3568V17.6747H42.5299H43.2444V15.237V12.7993H42.5299H41.8154V13.1064L41.8137 13.4154L41.7672 13.3261C41.6922 13.1832 41.51 13.0154 41.3243 12.9207C41.1296 12.8207 40.9724 12.7725 40.7348 12.7368C40.5419 12.7082 40.2186 12.7046 40.0221 12.7296ZM40.9081 14.0404C41.3546 14.1351 41.7011 14.428 41.8458 14.8387C41.9083 15.0155 41.9226 15.3084 41.878 15.5031C41.7922 15.896 41.4957 16.2281 41.1081 16.3692C40.3722 16.6371 39.6095 16.2549 39.4238 15.5227C39.3487 15.2316 39.4077 14.8566 39.5684 14.5905C39.6917 14.3869 39.9328 14.1833 40.1525 14.1012C40.3829 14.0137 40.6759 13.9904 40.9081 14.0404Z"
          fill="#5F5046"/>
    <path d="M50.0127 12.7219C49.484 12.7755 48.9588 13.0327 48.5802 13.4184C47.9657 14.0453 47.7264 15.0168 47.9586 15.9329C48.1015 16.499 48.448 16.9955 48.9053 17.2902C49.3714 17.592 49.9412 17.7259 50.5325 17.6741C51.0897 17.6259 51.5256 17.4402 51.731 17.1652L51.7846 17.0937L51.7756 17.3348C51.7453 18.0634 51.447 18.4635 50.8129 18.6224C50.6021 18.676 50.1395 18.6885 49.9055 18.6492C49.5894 18.5938 49.2286 18.4635 48.9267 18.2938L48.782 18.2135L48.4516 18.7421L48.1193 19.2707L48.239 19.3493C48.3998 19.4511 48.7909 19.6421 48.9588 19.6975C49.4661 19.8672 49.9698 19.9368 50.5628 19.919C50.8968 19.91 51.054 19.8886 51.3291 19.8189C51.8703 19.6797 52.3633 19.3689 52.658 18.9796C52.842 18.7349 53.0081 18.3367 53.0831 17.9599C53.1635 17.5527 53.1617 17.5866 53.1688 15.1418L53.176 12.7987H52.4597H51.7453V13.1148V13.4327L51.7113 13.3613C51.5327 12.9684 50.9468 12.7041 50.2806 12.713C50.1681 12.7148 50.0466 12.7184 50.0127 12.7219ZM50.9683 14.0738C51.4988 14.2471 51.8346 14.6935 51.8346 15.2275C51.8346 15.8401 51.3934 16.324 50.7432 16.4258C50.3717 16.483 49.968 16.3562 49.693 16.0936C49.5358 15.9436 49.4429 15.7954 49.375 15.5936C49.3339 15.4686 49.3268 15.4222 49.3286 15.2275C49.3286 15.0346 49.3339 14.9846 49.375 14.8614C49.5161 14.4328 49.8394 14.1435 50.2895 14.0381C50.461 13.9988 50.7915 14.0149 50.9683 14.0738Z"
          fill="#5F5046"/>
    <path d="M81.0032 15.2368V17.6745H81.7176H82.4321V15.2368V12.7991H81.7176H81.0032V15.2368Z"
          fill="#5F5046"/>
</svg>
